HIERARCHY
ROOT ROOT
{
	OFFSET 0.000000 56.020000 -5.659234
	CHANNELS 6 Xposition Yposition Zposition Xrotation Yrotation Zrotation 
	JOINT C_spine0001_bind_JNT
	{
		OFFSET 0.000000 1.618999 0.000000
		CHANNELS 3 Xrotation Yrotation Zrotation
		JOINT C_spine0002_bind_JNT
		{
			OFFSET 0.000000 4.942001 0.000001
			CHANNELS 3 Xrotation Yrotation Zrotation
			JOINT C_spine0003_bind_JNT
			{
				OFFSET 0.000000 4.942001 -0.000000
				CHANNELS 3 Xrotation Yrotation Zrotation
				JOINT C_neck0001_bind_JNT
				{
					OFFSET 0.000000 17.026009 -0.000000
					CHANNELS 3 Xrotation Yrotation Zrotation
					JOINT C_neck0002_bind_JNT
					{
						OFFSET 0.000000 3.249985 0.000000
						CHANNELS 3 Xrotation Yrotation Zrotation
						JOINT C_head_bind_JNT
						{
							OFFSET 0.000000 5.278008 0.000000
							CHANNELS 3 Xrotation Yrotation Zrotation
							End Site
							{
								OFFSET 0.000000 0.000000 0.000000
							}
						}
					}
				}
				JOINT L_clavicle_bind_JNT
				{
					OFFSET 4.590000 12.067001 0.834000
					CHANNELS 3 Xrotation Yrotation Zrotation
					JOINT L_armUpper0001_bind_JNT
					{
						OFFSET 7.812635 0.512001 -3.452945
						CHANNELS 3 Xrotation Yrotation Zrotation
						JOINT L_armLower0001_bind_JNT
						{
							OFFSET 15.265892 -6.552116 -0.058157
							CHANNELS 3 Xrotation Yrotation Zrotation
							JOINT L_hand0001_bind_JNT
							{
								OFFSET 14.747667 -6.369995 5.049225
								CHANNELS 3 Xrotation Yrotation Zrotation
								End Site
								{
									OFFSET 0.000000 0.000000 0.000000
								}
							}
						}
					}
				}
				JOINT R_clavicle_bind_JNT
				{
					OFFSET -4.590000 12.067001 0.834000
					CHANNELS 3 Xrotation Yrotation Zrotation
					JOINT R_armUpper0001_bind_JNT
					{
						OFFSET -7.812635 0.512001 -3.452945
						CHANNELS 3 Xrotation Yrotation Zrotation
						JOINT R_armLower0001_bind_JNT
						{
							OFFSET -15.265890 -6.552124 -0.058160
							CHANNELS 3 Xrotation Yrotation Zrotation
							JOINT R_hand0001_bind_JNT
							{
								OFFSET -14.746784 -6.369629 5.048937
								CHANNELS 3 Xrotation Yrotation Zrotation
								End Site
								{
									OFFSET 0.000000 0.000000 0.000000
								}
							}
						}
					}
				}
			}
		}
	}
	JOINT C_pelvis0001_bind_JNT
	{
		OFFSET -0.000000 0.000000 0.000000
		CHANNELS 3 Xrotation Yrotation Zrotation
		JOINT L_legUpper0001_bind_JNT
		{
			OFFSET 6.599999 -6.027000 0.539000
			CHANNELS 3 Xrotation Yrotation Zrotation
			JOINT L_legLower0001_bind_JNT
			{
				OFFSET -0.140713 -19.187443 0.040261
				CHANNELS 3 Xrotation Yrotation Zrotation
				JOINT L_foot0001_bind_JNT
				{
					OFFSET -0.132215 -18.028637 -1.138370
					CHANNELS 3 Xrotation Yrotation Zrotation
					JOINT L_foot0002_bind_JNT
					{
						OFFSET 0.007014 -4.693133 9.886524
						CHANNELS 3 Xrotation Yrotation Zrotation
						End Site
						{
							OFFSET 0.000000 0.000000 0.000000
						}
					}
				}
			}
		}
		JOINT R_legUpper0001_bind_JNT
		{
			OFFSET -6.599999 -6.027000 0.539000
			CHANNELS 3 Xrotation Yrotation Zrotation
			JOINT R_legLower0001_bind_JNT
			{
				OFFSET 0.140710 -19.187164 0.040550
				CHANNELS 3 Xrotation Yrotation Zrotation
				JOINT R_foot0001_bind_JNT
				{
					OFFSET 0.132215 -18.028633 -1.138362
					CHANNELS 3 Xrotation Yrotation Zrotation
					JOINT R_foot0002_bind_JNT
					{
						OFFSET -0.007014 -4.693128 9.886505
						CHANNELS 3 Xrotation Yrotation Zrotation
						End Site
						{
							OFFSET 0.000000 0.000000 0.000000
						}
					}
				}
			}
		}
	}
}
MOTION
Frames: 8
Frame Time: 0.033333
0.000000 48.543415 0.000000 0.048049 0.387487 -0.019017 2.840077 -0.695712 0.615063 -5.760261 0.582524 -0.074095 4.011030 0.542926 0.446858 14.703433 -2.192594 0.768959 -0.277681 -1.070042 0.614490 -9.301936 -4.943846 2.023876 2.499948 -2.669733 -7.080523 -12.766268 -11.821102 -54.690681 4.696540 20.103622 -3.280246 -1.195417 -8.662252 -24.787947 -3.302774 4.363002 8.668333 -7.272461 8.105103 55.237541 15.244920 -15.569723 2.767050 -1.285783 11.683512 23.520344 4.574515 -1.303661 0.235401 0.204875 -1.925828 1.177731 4.498326 1.464130 -1.340492 -7.107750 2.263875 -1.423492 -2.990405 -1.019621 0.399308 0.268887 -3.243417 -3.339366 4.663341 -1.923231 0.251965 -6.714304 5.995886 3.204190 -3.178788 0.943639 -0.142609 
-0.035308 48.592163 0.049104 0.017079 0.833755 -0.035194 2.658463 -1.452764 0.549548 -5.718051 0.627462 0.039475 4.195023 0.674087 0.032997 14.338946 -2.742566 1.487864 0.104975 0.137121 -0.066112 -9.704915 -5.396164 2.145705 1.430343 -4.633737 -8.701385 -10.586587 -11.757277 -52.207432 1.361714 20.120974 -3.662264 -1.153346 -7.324409 -25.124027 -4.441680 5.463168 10.978004 -5.246088 8.772605 52.363453 12.538509 -16.573305 3.284207 -2.340941 11.953378 22.602184 4.905638 -1.858214 0.492303 -0.404153 -1.726788 0.204215 4.929179 1.886803 -1.486255 -7.662925 1.933009 -0.646019 -2.740536 -0.474990 0.843890 0.958060 -3.275989 -3.332816 3.390268 -2.274338 0.246213 -6.525341 6.268297 3.197598 -3.309242 0.959393 -0.256947 
-0.137436 48.575893 0.123979 0.012844 1.485349 -0.032195 2.663954 -2.034589 0.556780 -5.765572 0.524809 -0.175091 4.285076 0.694783 0.163372 14.191286 -2.616929 1.362522 -0.197782 0.127134 0.103823 -9.634792 -5.279387 2.149242 0.838351 -4.572329 -9.310311 -10.386558 -11.445592 -51.574272 2.156817 19.584095 -3.720241 -1.346064 -7.371468 -25.380447 -4.674912 5.435390 11.398482 -5.550450 9.121671 52.230423 12.791540 -17.036497 2.794821 -2.421035 12.014997 22.117382 4.872014 -2.375393 0.522677 -0.336327 -1.617445 0.172946 5.170746 1.732737 -1.317402 -7.597530 2.447859 -0.767845 -2.900434 -0.577748 0.641068 1.318431 -3.030067 -3.502213 2.806055 -2.414192 0.048803 -6.306365 6.550344 3.513687 -3.574768 1.099293 -0.421733 
-0.197615 48.528393 0.231353 0.026133 1.168939 -0.016276 2.668669 -1.458356 0.580641 -5.858480 0.362400 -0.173034 4.253290 0.451791 0.064563 14.009020 -2.425582 1.438033 0.064286 0.128980 0.018552 -9.763412 -5.105505 2.372981 0.862128 -4.381631 -9.321885 -10.287251 -11.129423 -51.664440 2.125582 19.407534 -3.873689 -1.436759 -7.190223 -25.333279 -4.871500 5.778052 11.952459 -5.131236 9.096517 51.428013 12.582618 -17.595770 3.107999 -2.392972 11.943117 21.926241 4.737980 -1.586708 0.492178 -0.056211 -1.741416 0.274663 5.066498 1.286891 -1.075731 -7.497070 2.483179 -1.044139 -3.111872 -0.522303 0.590736 1.584276 -3.099569 -3.394102 2.870882 -2.584072 0.245059 -6.540331 6.674429 3.346452 -3.368704 1.155753 -0.436826 
-0.266316 48.548733 0.313163 0.020384 1.199776 -0.023447 2.448286 -1.140124 0.616354 -5.723201 0.431329 -0.169245 4.184144 0.539240 0.089652 14.055845 -2.498426 1.521968 -0.105005 0.168862 0.062246 -9.881815 -5.057300 2.640152 0.838998 -4.630702 -9.689182 -10.331422 -10.994406 -51.521202 2.420036 19.432482 -3.916006 -1.613362 -6.885392 -25.775528 -4.991938 5.867330 11.981872 -5.016805 8.509272 51.377956 12.444350 -18.281767 3.098079 -2.576133 11.820024 21.502474 4.715553 -1.327044 0.529865 0.064506 -1.345589 0.165065 5.128633 0.622518 -0.867955 -7.550800 2.648847 -1.142139 -3.203907 -0.700964 0.617805 2.012396 -2.918988 -3.460874 2.435704 -2.862401 0.364308 -6.168038 6.503511 3.266962 -3.717135 1.009788 -0.465081 
-0.321267 48.546692 0.358385 0.013887 1.213785 -0.024770 2.538084 -0.940503 0.818404 -5.752575 0.396275 -0.201952 4.134248 0.508344 0.048032 13.925068 -2.510680 1.616107 -0.021733 0.140479 -0.017683 -9.924997 -5.187257 2.949508 1.010437 -4.864264 -9.592456 -10.462122 -10.742824 -51.641914 2.222162 19.383047 -4.105192 -1.611091 -6.832446 -26.214485 -5.130043 5.931331 12.162649 -4.549237 7.938587 51.044659 12.424889 -18.379055 2.962629 -2.690708 11.770180 21.793154 4.546170 -1.097294 0.544200 0.063092 -1.231322 0.296983 5.638496 0.392893 -0.845841 -7.690233 2.575692 -1.238260 -3.376097 -0.668783 0.672813 2.409461 -2.903401 -3.473670 2.343779 -3.034146 0.399635 -6.253278 6.606871 3.299790 -3.706118 1.054621 -0.502049 
-0.365852 48.589558 0.398141 0.016342 1.295863 -0.016188 2.338409 -0.721534 0.938303 -5.592788 0.276119 -0.219089 4.194946 0.451532 0.130493 13.751381 -2.606801 1.661387 -0.060943 0.145036 0.015577 -10.259667 -5.415564 3.107300 0.868801 -4.816788 -9.635852 -10.229171 -10.490145 -51.741367 2.192451 19.319513 -4.272406 -1.748951 -6.891523 -26.484818 -5.252976 6.179490 12.291160 -4.125963 7.358526 50.820961 12.372539 -18.824339 3.112338 -3.022785 11.681568 21.681274 4.263110 -0.818278 0.707797 0.406794 -1.028886 0.068484 5.443419 0.099633 -0.595316 -7.667947 2.547559 -1.449622 -3.292098 -0.781612 0.597549 2.619601 -2.852941 -3.574717 2.261721 -3.290789 0.358177 -6.053133 6.587449 3.284745 -3.825871 1.083115 -0.407238 
-0.399832 48.607815 0.404829 0.023694 1.167073 -0.015378 2.283040 -0.385789 0.854192 -5.594833 0.269223 -0.124686 4.287137 0.392594 0.102535 13.663608 -2.680179 1.785757 -0.097365 0.245141 -0.138241 -10.082964 -5.620555 3.199159 0.887187 -4.867661 -9.593243 -10.280823 -10.214090 -52.090366 2.045299 19.260685 -4.044561 -1.541014 -6.806400 -26.695272 -5.309644 6.290347 12.405641 -3.913676 6.958660 50.819790 12.224932 -19.320208 2.939835 -3.061067 11.683060 21.919106 4.197904 -0.463431 0.642667 0.352651 -0.779071 0.161235 5.516169 -0.106194 -0.638007 -7.543813 2.539772 -1.351942 -3.304785 -0.732513 0.488734 2.855070 -2.611027 -3.529632 2.246026 -3.440028 0.445791 -6.057952 6.332517 3.241695 -3.868051 1.090738 -0.430047 
